<svg width="88" height="90" viewBox="0 0 88 90" fill="none" xmlns="http://www.w3.org/2000/svg">
<g filter="url(#filter0_d_2127_92)">
<path d="M44 2C21.9552 2 4 19.9552 4 42C4 64.0433 21.9552 82 44 82C66.0448 82 84 64.0433 84 42C84 19.9552 66.0448 2 44 2ZM78.4892 27.7777H64.8005C62.7557 17.9988 58.6661 10.2662 53.6889 5.91125C64.889 8.93351 74.1327 17.1113 78.4892 27.7777ZM42.6673 4.75542V27.7777H25.9549C28.8002 14.7112 35.2885 5.73285 42.6673 4.75542ZM45.3327 4.75542C52.7115 5.73285 59.1998 14.7112 62.0451 27.7777H45.3327V4.75542ZM34.3995 5.91125C29.3339 10.2662 25.2443 17.9988 23.1995 27.7777H9.51083C13.8673 17.1113 23.111 8.93351 34.3995 5.91125ZM8.53339 30.4446H79.5551C80.7109 34.089 81.4215 37.9988 81.4215 42C81.4215 45.9997 80.7993 49.9109 79.5551 53.5554H8.53339C7.28911 49.9109 6.66697 45.9997 6.66697 42C6.66697 37.9988 7.28911 34.089 8.53339 30.4446ZM25.9549 56.2223H42.6673V79.2446C35.2885 78.2656 28.8002 69.2888 25.9549 56.2223ZM45.3327 79.2446V56.2223H62.0451C59.1998 69.2888 52.7115 78.2656 45.3327 79.2446ZM9.51083 56.2223H23.2894C25.3327 65.9997 29.4224 73.7323 34.4895 78.0887C23.111 75.0665 13.8673 66.8887 9.51083 56.2223ZM53.6005 78.0887C58.6661 73.7323 62.7557 65.9997 64.8005 56.2223H78.5776C74.1327 66.8887 64.889 75.0665 53.6005 78.0887Z" fill="#14DBEB"/>
<path d="M39.1063 47.2156C39.2963 47.6865 39.7745 48 40.3462 48C40.9194 48 41.4927 47.7646 41.6827 47.2937L44.4524 42.3532L47.2221 47.2937C47.4121 47.6865 47.9854 48 48.5586 48C48.5586 48 48.5586 48 48.6536 48C49.2269 48 49.7035 47.6865 49.8952 47.2156L53.9048 37.5688C54.1914 36.9418 53.8098 36.3135 53.0449 36.0781C52.2816 35.8426 51.5183 36.1574 51.2317 36.7844L48.367 43.6085L45.7889 39.0595C45.5989 38.6667 45.0257 38.3532 44.4524 38.3532C43.8791 38.3532 43.4025 38.5886 43.1159 39.0595L40.6328 43.6865L37.7681 36.8625C37.4831 36.2355 36.7182 35.922 35.9549 36.1574C35.1917 36.3929 34.8084 37.0199 35.095 37.6468L39.1063 47.2156Z" fill="#14DBEB"/>
<path d="M13.0913 37.5678L16.8899 47.2155C17.0699 47.6865 17.523 48 18.0661 48C18.0661 48 18.0661 48 18.1561 48C18.6992 48 19.1508 47.7645 19.4223 47.2949L22.0463 42.3526L24.6687 47.2949C24.9403 47.7645 25.3918 48 25.9349 48C26.478 48 26.9296 47.6865 27.1111 47.2155L30.9098 37.5678C31.1813 36.9408 30.8198 36.3137 30.0966 36.0782C29.372 35.8428 28.6489 36.1563 28.3773 36.7833L25.6634 43.6081L23.221 39.0587C23.041 38.6658 22.4979 38.3523 21.9548 38.3523C21.4117 38.3523 20.9601 38.5877 20.6886 39.0587L18.2461 43.6081L15.5322 36.7833C15.2622 36.1563 14.5375 35.8428 13.8144 36.0782C13.1813 36.2343 12.8197 36.9408 13.0913 37.5678Z" fill="#14DBEB"/>
<path d="M60.9599 47.2156C61.1405 47.6865 61.5898 48 62.1302 48C62.1302 48 62.1302 48 62.2198 48C62.7602 48 63.2095 47.7646 63.4797 47.2937L66.0907 42.3532L68.7001 47.2937C68.9703 47.7646 69.4212 48 69.96 48C70.5004 48 70.9513 47.6865 71.1304 47.2156L74.9102 37.5688C75.1804 36.9418 74.8207 36.3135 74.1011 36.0781C73.3816 35.8426 72.6605 36.1574 72.3903 36.7844L69.6898 43.6085L67.261 39.0595C67.0804 38.6667 66.54 38.3532 65.9996 38.3532C65.4607 38.3532 65.0099 38.5886 64.7397 39.0595L62.3094 43.6085L59.6104 36.7844C59.3402 36.1574 58.6191 35.8426 57.8996 36.0781C57.1801 36.3135 56.8203 36.9418 57.089 37.5688L60.9599 47.2156Z" fill="#14DBEB"/>
</g>
<defs>
<filter id="filter0_d_2127_92" x="-2" y="0" width="91" height="91" filterUnits="userSpaceOnUse" color-interpolation-filters="sRGB">
<feFlood flood-opacity="0" result="BackgroundImageFix"/>
<feColorMatrix in="SourceAlpha" type="matrix" values="0 0 0 0 0 0 0 0 0 0 0 0 0 0 0 0 0 0 127 0" result="hardAlpha"/>
<feOffset dy="4"/>
<feGaussianBlur stdDeviation="2"/>
<feComposite in2="hardAlpha" operator="out"/>
<feColorMatrix type="matrix" values="0 0 0 0 0 0 0 0 0 0 0 0 0 0 0 0 0 0 0.25 0"/>
<feBlend mode="normal" in2="BackgroundImageFix" result="effect1_dropShadow_2127_92"/>
<feBlend mode="normal" in="SourceGraphic" in2="effect1_dropShadow_2127_92" result="shape"/>
</filter>
</defs>
</svg>
